HIERARCHY
ROOT hip
{
  OFFSET 0 0 0
  CHANNELS 6 Xposition Yposition Zposition Zrotation Yrotation Xrotation
  JOINT abdomen
  {
    OFFSET 0 20.6881 -0.73152
    CHANNELS 3 Zrotation Xrotation Yrotation
    JOINT chest
    {
      OFFSET 0 11.7043 -0.48768
      CHANNELS 3 Zrotation Xrotation Yrotation
      JOINT neck
      {
        OFFSET 0 22.1894 -2.19456
        CHANNELS 3 Zrotation Xrotation Yrotation
        JOINT head
        {
          OFFSET -0.24384 7.07133 1.2192
          CHANNELS 3 Zrotation Xrotation Yrotation
          JOINT leftEye
          {
            OFFSET 4.14528 8.04674 8.04672
            CHANNELS 3 Zrotation Xrotation Yrotation
            End Site
            {
              OFFSET 1 0 0
            }
          }
          JOINT rightEye
          {
            OFFSET -3.6576 8.04674 8.04672
            CHANNELS 3 Zrotation Xrotation Yrotation
            End Site
            {
              OFFSET 1 0 0
            }
          }
        }
      }
      JOINT rCollar
      {
        OFFSET -2.68224 19.2634 -4.8768
        CHANNELS 3 Zrotation Xrotation Yrotation
        JOINT rShldr
        {
          OFFSET -8.77824 -1.95073 1.46304
          CHANNELS 3 Zrotation Xrotation Yrotation
          JOINT rForeArm
          {
            OFFSET -28.1742 -1.7115 0.48768
            CHANNELS 3 Zrotation Xrotation Yrotation
            JOINT rHand
            {
              OFFSET -22.5879 0.773209 7.07136
              CHANNELS 3 Zrotation Xrotation Yrotation
              JOINT rThumb1
              {
                OFFSET -1.2192 -0.487915 3.41376
                CHANNELS 3 Zrotation Xrotation Yrotation
                JOINT rThumb2
                {
                  OFFSET -3.37035 -0.52449 3.41376
                  CHANNELS 3 Zrotation Xrotation Yrotation
                  End Site
                  {
                    OFFSET -1.78271 -1.18214 1.43049
                  }
                }
              }
              JOINT rIndex1
              {
                OFFSET -7.75947 0.938293 5.60832
                CHANNELS 3 Zrotation Xrotation Yrotation
                JOINT rIndex2
                {
                  OFFSET -2.54057 -0.884171 1.56538
                  CHANNELS 3 Zrotation Xrotation Yrotation
                  End Site
                  {
                    OFFSET -1.62519 -0.234802 1.16502
                  }
                }
              }
              JOINT rMid1
              {
                OFFSET -8.24714 1.18213 3.41376
                CHANNELS 3 Zrotation Xrotation Yrotation
                JOINT rMid2
                {
                  OFFSET -3.10165 -0.590103 1.0647
                  CHANNELS 3 Zrotation Xrotation Yrotation
                  End Site
                  {
                    OFFSET -2.48547 -0.328903 0.83742
                  }
                }
              }
              JOINT rRing1
              {
                OFFSET -8.82822 0.546677 1.51678
                CHANNELS 3 Zrotation Xrotation Yrotation
                JOINT rRing2
                {
                  OFFSET -2.60934 -0.819778 -0.0198488
                  CHANNELS 3 Zrotation Xrotation Yrotation
                  End Site
                  {
                    OFFSET -2.33842 -0.294052 0.168128
                  }
                }
              }
              JOINT rPinky1
              {
                OFFSET -8.27202 -0.0477905 -0.4584
                CHANNELS 3 Zrotation Xrotation Yrotation
                JOINT rPinky2
                {
                  OFFSET -1.82734 -0.647385 -0.700984
                  CHANNELS 3 Zrotation Xrotation Yrotation
                  End Site
                  {
                    OFFSET -1.69225 -0.51767 -0.607171
                  }
                }
              }
            }
          }
        }
      }
      JOINT lCollar
      {
        OFFSET 2.68224 19.2634 -4.8768
        CHANNELS 3 Zrotation Xrotation Yrotation
        JOINT lShldr
        {
          OFFSET 8.77824 -1.95073 1.46304
          CHANNELS 3 Zrotation Xrotation Yrotation
          JOINT lForeArm
          {
            OFFSET 28.1742 -1.7115 0.48768
            CHANNELS 3 Zrotation Xrotation Yrotation
            JOINT lHand
            {
              OFFSET 22.5879 0.773209 7.07136
              CHANNELS 3 Zrotation Xrotation Yrotation
              JOINT lThumb1
              {
                OFFSET 1.2192 -0.487915 3.41376
                CHANNELS 3 Zrotation Xrotation Yrotation
                JOINT lThumb2
                {
                  OFFSET 3.37035 -0.52449 3.41376
                  CHANNELS 3 Zrotation Xrotation Yrotation
                  End Site
                  {
                    OFFSET 1.78271 -1.18214 1.43049
                  }
                }
              }
              JOINT lIndex1
              {
                OFFSET 7.75947 0.938293 5.60832
                CHANNELS 3 Zrotation Xrotation Yrotation
                JOINT lIndex2
                {
                  OFFSET 2.54057 -0.884171 1.56538
                  CHANNELS 3 Zrotation Xrotation Yrotation
                  End Site
                  {
                    OFFSET 1.62519 -0.234802 1.16502
                  }
                }
              }
              JOINT lMid1
              {
                OFFSET 8.24714 1.18213 3.41376
                CHANNELS 3 Zrotation Xrotation Yrotation
                JOINT lMid2
                {
                  OFFSET 3.10165 -0.590103 1.0647
                  CHANNELS 3 Zrotation Xrotation Yrotation
                  End Site
                  {
                    OFFSET 2.48547 -0.328903 0.83742
                  }
                }
              }
              JOINT lRing1
              {
                OFFSET 8.82822 0.546677 1.51678
                CHANNELS 3 Zrotation Xrotation Yrotation
                JOINT lRing2
                {
                  OFFSET 2.60934 -0.819778 -0.0198488
                  CHANNELS 3 Zrotation Xrotation Yrotation
                  End Site
                  {
                    OFFSET 2.33842 -0.294052 0.168128
                  }
                }
              }
              JOINT lPinky1
              {
                OFFSET 8.27202 -0.0477905 -0.4584
                CHANNELS 3 Zrotation Xrotation Yrotation
                JOINT lPinky2
                {
                  OFFSET 1.82734 -0.647385 -0.700984
                  CHANNELS 3 Zrotation Xrotation Yrotation
                  End Site
                  {
                    OFFSET 1.69225 -0.51767 -0.607171
                  }
                }
              }
            }
          }
        }
      }
    }
  }
  JOINT rButtock
  {
    OFFSET -8.77824 4.35084 1.2192
    CHANNELS 3 Zrotation Xrotation Yrotation
    JOINT rThigh
    {
      OFFSET 0 -1.70687 -2.19456
      CHANNELS 3 Zrotation Xrotation Yrotation
      JOINT rShin
      {
        OFFSET 0 -36.8199 0.73152
        CHANNELS 3 Zrotation Xrotation Yrotation
        JOINT rFoot
        {
          OFFSET 0.73152 -45.1104 -5.12064
          CHANNELS 3 Zrotation Xrotation Yrotation
          End Site
          {
            OFFSET -1.1221 -3.69964 12.103
          }
        }
      }
    }
  }
  JOINT lButtock
  {
    OFFSET 8.77824 4.35084 1.2192
    CHANNELS 3 Zrotation Xrotation Yrotation
    JOINT lThigh
    {
      OFFSET 0 -1.70687 -2.19456
      CHANNELS 3 Zrotation Xrotation Yrotation
      JOINT lShin
      {
        OFFSET 0 -36.8199 0.73152
        CHANNELS 3 Zrotation Xrotation Yrotation
        JOINT lFoot
        {
          OFFSET -0.73152 -45.1104 -5.12064
          CHANNELS 3 Zrotation Xrotation Yrotation
          End Site
          {
            OFFSET 1.1221 -3.69964 12.103
          }
        }
      }
    }
  }
}
MOTION
Frames:	6
Frame Time:	0.00833333
-200.84059 82.94003 -16.471636 15.49136 68.3888 22.558704 -3.4296126 -5.256475 8.645488 -0.39442396 -8.545368 2.6004822 -5.444637 23.011402 -13.012727 10.371206 -33.67761 -22.208157 -0.013322874 -0.041364733 0.011066322 0.037989914 0.009222527 -0.016237246 -0.027332552 0.008606612 0.026652765 53.977226 13.851214 57.745018 -26.907444 -26.103977 61.064312 -0.06430852 4.6545534 0.7042397 -0.01018694 0.04565116 -0.017542917 -0.029734513 0.04413101 0.010377151 -0.028753337 0.03879684 0.0075781685 7.7284703 5.5272255 0.44488242 -0.03610611 0.011201214 0.029566653 2.8622983 0.96744746 0.18655208 -0.0011489722 0.016622743 0.0233522 10.2793455 0.6830512 -0.010513581 0.015126861 0.010931025 0.016095238 2.240504 -0.79641575 -0.2605476 -0.017442884 0.031295426 0.0010667455 -105.05756 32.08073 34.697613 25.572832 -22.731138 -55.429604 -0.0108068315 8.111529 -1.1002232 0.0063660014 -0.05270989 -0.033100672 -0.030465012 0.010657579 0.06410358 0.023546176 -0.0006588668 -0.009412851 -7.727042 5.4282312 -0.41783887 -0.035063513 0.040709563 0.024037171 -2.9629502 1.025489 -0.10461468 -0.08940415 -0.0023300457 -0.06595184 -10.29945 0.7120793 -0.002760341 -0.015302046 -0.016313685 0.013376928 -2.2323353 -0.7375769 0.08956686 0.0057087555 0.057893682 0.0048956107 -8.838892 -18.334913 -17.758959 -0.950115 52.153778 1.499233 -0.7176101 15.732925 -7.0002027 -0.028911699 0.009842378 0.0009735952 -10.830774 -35.201927 -0.46759516 0.49683264 42.639202 -0.88455915 2.692377 -9.775539 4.7797523
-195.63158 82.58147 -18.228989 34.91062 74.86701 37.804527 -8.415014 -2.9111862 9.511544 -0.6111385 -9.202669 2.739048 -4.940819 24.10386 -14.808913 10.009175 -34.27068 -25.762438 -0.011769531 -0.048392963 0.01888598 0.023601765 0.004191587 -0.038879488 -0.0316717 -0.0057267956 0.03164189 52.92114 7.773547 58.81655 -27.483723 -27.96639 63.97823 -0.037551425 -0.003312201 0.09733112 -0.025190748 0.025058847 -0.011553119 -0.024019456 0.017499872 0.0038666828 -0.026627772 0.02987615 0.030296413 7.737493 5.533673 0.42890176 -0.027286697 -0.0013769987 0.03784806 2.9081657 0.99240774 0.17401804 0.0021837258 0.0010518732 0.015780076 10.277656 0.67236 -0.005993213 0.00518666 0.018464008 0.016594721 2.231973 -0.81406623 -0.26595768 -0.015904179 0.02188955 -0.0067106057 -106.09636 35.105938 32.228218 26.291592 -24.502506 -58.25691 -0.018222818 7.4508395 -1.0034332 0.0006019064 -0.04062643 -0.022103606 -0.025918184 0.009617531 0.08499727 0.014289184 -0.011174633 -0.017247006 -7.733618 5.421279 -0.42221496 -0.04537763 0.0031982977 0.026097057 -2.939449 1.0108801 -0.092878625 -0.079852626 0.019658638 -0.026162086 -10.325019 0.7011126 -0.0008967976 -0.0056662257 -0.027206706 0.01980089 -2.2292123 -0.7326638 0.10522143 -0.021144956 0.05150617 0.01199767 -17.142666 -31.95582 -18.95172 -1.9810905 66.782455 2.4002218 -0.9469386 12.038065 -2.336348 -0.010536622 0.0065972963 0.0033678622 -15.931409 -29.933819 -0.2030619 0.38912824 39.40122 -0.6451585 0.9546508 -10.598638 -1.7525878
-190.17316 82.691986 -19.841782 70.66123 80.33329 74.07846 -9.8167 -1.5548639 9.868933 -1.6058156 -9.630111 2.6935012 -4.1852727 24.584393 -15.344598 9.206312 -33.536625 -27.397575 0.0020267118 -0.037118483 0.017583529 0.020553205 0.00572103 -0.05365068 -0.027448148 -0.01848585 0.033349965 50.173866 0.4808398 58.52312 -27.370064 -27.491756 63.14812 -0.034834806 -3.04584 -0.34506887 -0.034886908 0.014075401 0.001007464 -0.025283553 0.001723967 0.0075997417 -0.016338883 0.024662854 0.027430516 7.7365036 5.5242834 0.4187081 -0.00877231 -0.009115785 0.029823389 2.9363472 0.98569024 0.16257714 0.0063967956 -0.018284187 0.015417452 10.282723 0.6847681 0.0079894 0.010002692 0.030333493 0.010773504 2.235775 -0.81724864 -0.26496118 -0.017916955 0.013184676 0.004547753 -103.44637 36.53809 25.46304 26.724977 -25.755278 -60.24432 0.022018826 7.295715 -1.0240488 -0.0018827298 -0.02763896 -0.028123643 -0.007555599 0.012150572 0.080078244 0.0024525346 -0.008230198 -0.021402016 -7.7283716 5.428001 -0.42876983 -0.06191621 -0.005539387 0.0075409263 -2.9299521 1.006856 -0.09001672 -0.06824656 0.026098773 0.0033479268 -10.333123 0.70604634 -0.0039348737 0.0037749954 -0.022570612 0.008703525 -2.2217362 -0.727459 0.120229505 -0.025635391 0.027036611 0.010692447 -20.219086 -42.032764 -16.167849 -2.1150088 68.90455 2.4811723 -0.9872433 4.0004478 -6.043929 0.0039059042 0.0030854233 0.0037871362 -16.553381 -23.52679 -0.14727607 0.25996432 35.654022 -0.604479 -0.50547355 -12.033553 -7.518159
-184.31104 83.70713 -21.336372 134.48137 75.9119 140.72543 -10.149061 -1.0668354 8.421508 -2.09772 -9.885663 2.1844232 -4.3996034 24.652273 -14.21816 8.859111 -32.6263 -26.070255 0.016522333 -0.0293183 0.018686447 0.013043843 0.009658545 -0.04196753 -0.031100212 -0.020217858 0.032370873 44.932568 -6.6199055 56.975803 -26.608982 -25.055805 59.21266 -0.008423916 -4.1714997 -0.51370543 -0.051011387 0.0077544427 0.010817883 -0.021916483 0.0029058398 0.0063322624 -0.0073908977 0.0182818 -0.0033899834 7.735913 5.51213 0.41562283 0.0076740016 -0.016934657 0.01719 2.945684 0.9775377 0.15850057 0.013651938 -0.035449043 0.013876799 10.280472 0.7002856 0.01680958 0.014002149 0.034118365 0.015953673 2.2494593 -0.8058229 -0.25884032 -0.025112765 -0.0017713413 0.026113551 -97.93835 34.813942 18.004484 26.907354 -26.367298 -61.236877 0.075904556 7.517951 -1.072608 0.0047598225 -0.015877688 -0.038948294 0.010179959 0.031061517 0.06000165 0.0021915955 0.0021747036 -0.028860033 -7.713497 5.433093 -0.43051 -0.06774031 0.010875991 -0.0029175077 -2.9110837 1.0054885 -0.08326016 -0.054113917 0.02667386 0.013188241 -10.33813 0.7309781 -0.0023504517 0.008605259 -0.009599828 -0.010865945 -2.2126508 -0.7322996 0.14779395 -0.015522838 0.010353439 -0.00056088116 -23.476812 -45.61602 -13.403299 -0.9805748 56.777214 1.2782558 -1.6892247 -0.6892369 -11.063266 0.0047742412 0.007529747 -0.009492579 -15.984645 -16.810003 -0.6507598 0.14039454 29.602837 -0.572997 -1.8390732 -11.489452 -13.10702
-177.90578 84.391205 -22.422125 151.26175 65.86561 159.17528 -11.189392 -1.4460461 6.7432966 -1.6118634 -10.022679 1.7592448 -5.0515532 23.71996 -11.773759 8.766024 -31.200726 -22.020617 0.0330077 -0.019260697 0.028019069 0.008781905 0.01298943 -0.03945972 -0.031069769 -0.022305898 0.040720318 38.757195 -13.173596 52.80849 -25.724895 -22.671762 55.37721 -0.021675045 -5.028331 -0.6018486 -0.041252803 0.005587813 0.0208555 -0.011558895 0.010071989 -0.006978188 0.000816804 0.0073762513 -0.021781689 7.729223 5.4986286 0.4192531 0.01042753 -0.024319932 0.012837183 2.9599063 0.9904647 0.1618087 0.01064529 -0.050350156 0.019508732 10.281623 0.7086224 0.017808814 0.015112321 0.029046679 0.011307526 2.2672744 -0.77933294 -0.24950007 -0.0192692 -0.015384814 0.042916708 -93.90857 31.92948 14.806555 26.954863 -26.461288 -61.41744 0.11160417 8.580799 -1.2380408 0.005296631 -0.00200599 -0.05080686 0.026070159 0.04032976 0.026011921 0.003854943 -0.0025527377 -0.02559589 -7.700202 5.4397383 -0.42629477 -0.057233755 0.016311485 -0.001325042 -2.897255 1.0115526 -0.090397306 -0.04328983 0.02734524 0.014636416 -10.335739 0.7473612 -0.008169088 0.0024970057 0.0005208671 -0.014403342 -2.213867 -0.736432 0.15773393 -0.014624693 0.020234033 0.0029773386 -24.893444 -42.996708 -9.441868 -0.39866853 40.076363 0.57871693 -1.6255972 0.8983584 -14.935372 -0.018287404 0.013797391 -0.026354693 -14.471369 -11.05206 -1.5551012 0.06782646 23.6691 -0.43674177 -2.5499365 -9.519547 -17.13565
-171.16028 83.91787 -22.717106 154.28362 63.101566 162.26295 -12.174884 -2.0904913 5.4034867 -1.0354289 -9.943991 1.4604337 -5.225028 21.907793 -9.490221 9.047079 -28.707273 -17.529886 0.04756273 -0.010677127 0.036440253 0.0052887425 0.018258236 -0.035891607 -0.01693172 -0.023587769 0.049155876 34.99741 -17.151272 46.172035 -25.084972 -21.146711 52.90497 -0.030731631 -5.739914 -0.6888843 -0.008386643 0.0046151984 0.02825431 -0.0009901578 0.013705422 -0.013457195 -0.0023915602 0.0018617734 -0.026822602 7.713846 5.4870825 0.42613012 -0.0011774473 -0.022492599 -0.002130557 2.9611118 1.00136 0.17789525 -0.0011623448 -0.052780364 0.018326659 10.298715 0.7078719 0.014134944 0.019598302 0.023738539 0.002920035 2.269687 -0.7494222 -0.23005597 0.00062002125 -0.015485462 0.047600605 -92.043015 30.080427 13.628069 26.957539 -26.384066 -61.369354 0.14314526 10.138853 -1.4543014 -0.0025807605 0.00161058 -0.058842685 0.01728679 0.030964984 0.006307201 0.005054524 -0.0075786533 -0.010150376 -7.7028084 5.4408965 -0.42527002 -0.04194187 0.01468933 0.0061801886 -2.907848 1.0260619 -0.105975 -0.035350464 0.026091801 0.009620093 -10.317092 0.75133514 -0.019737346 0.0025016214 0.0127421105 -0.0040382356 -2.19766 -0.73859656 0.14870949 -0.012645213 0.029349044 0.004852361 -24.037838 -40.65198 -9.473278 -0.30027744 34.76715 0.49813026 -1.3945378 3.9642851 -17.185139 -0.04111459 0.020142768 -0.0197234 -12.662268 -7.834429 -3.417232 0.06785532 23.190971 -0.37532493 -2.7094207 -8.92633 -18.036678
